<svg width="61.76" height="11.2" viewBox="0 0 61.76 11.2" xmlns="http://www.w3.org/2000/svg"><g id="svgGroup" stroke-linecap="round" fill-rule="evenodd" font-size="9pt" stroke="#00000000" stroke-width="0.25mm" fill="#dadadb" style="stroke:#00000000;stroke-width:0.25mm;fill:#dadadb"><path d="M 25.48 4.8 A 2.787 2.787 0 0 1 25.425 4.48 Q 25.406 4.314 25.402 4.127 A 5.005 5.005 0 0 1 25.4 4 Q 25.4 3.643 25.444 3.375 A 2.187 2.187 0 0 1 25.48 3.2 L 28.68 3.2 Q 28.74 3.439 28.755 3.767 A 5.061 5.061 0 0 1 28.76 4 A 4.472 4.472 0 0 1 28.746 4.367 Q 28.731 4.544 28.701 4.699 A 2.462 2.462 0 0 1 28.68 4.8 L 29.68 4.8 Q 29.74 5.039 29.755 5.367 A 5.061 5.061 0 0 1 29.76 5.6 A 4.472 4.472 0 0 1 29.746 5.967 Q 29.731 6.144 29.701 6.299 A 2.462 2.462 0 0 1 29.68 6.4 Q 29.74 6.639 29.755 6.967 A 5.061 5.061 0 0 1 29.76 7.2 A 4.472 4.472 0 0 1 29.746 7.567 Q 29.731 7.744 29.701 7.899 A 2.462 2.462 0 0 1 29.68 8 Q 29.74 8.239 29.755 8.567 A 5.061 5.061 0 0 1 29.76 8.8 A 4.472 4.472 0 0 1 29.746 9.167 Q 29.731 9.344 29.701 9.499 A 2.462 2.462 0 0 1 29.68 9.6 Q 29.74 9.839 29.755 10.167 A 5.061 5.061 0 0 1 29.76 10.4 A 4.472 4.472 0 0 1 29.746 10.767 Q 29.731 10.944 29.701 11.099 A 2.462 2.462 0 0 1 29.68 11.2 L 28.08 11.2 A 2.787 2.787 0 0 1 28.025 10.88 Q 28.006 10.714 28.002 10.527 A 5.005 5.005 0 0 1 28 10.4 Q 28 10.043 28.044 9.775 A 2.187 2.187 0 0 1 28.08 9.6 A 2.787 2.787 0 0 1 28.025 9.28 Q 28.006 9.114 28.002 8.927 A 5.005 5.005 0 0 1 28 8.8 Q 28 8.443 28.044 8.175 A 2.187 2.187 0 0 1 28.08 8 A 2.787 2.787 0 0 1 28.025 7.68 Q 28.006 7.514 28.002 7.327 A 5.005 5.005 0 0 1 28 7.2 Q 28 6.843 28.044 6.575 A 2.187 2.187 0 0 1 28.08 6.4 A 2.787 2.787 0 0 1 28.025 6.08 Q 28.006 5.914 28.002 5.727 A 5.005 5.005 0 0 1 28 5.6 Q 28 5.243 28.044 4.975 A 2.187 2.187 0 0 1 28.08 4.8 L 25.48 4.8 L 24.88 4.8 A 2.462 2.462 0 0 0 24.901 4.699 Q 24.931 4.544 24.946 4.367 A 4.472 4.472 0 0 0 24.96 4 A 5.061 5.061 0 0 0 24.955 3.767 Q 24.94 3.439 24.88 3.2 A 2.462 2.462 0 0 0 24.901 3.099 Q 24.931 2.944 24.946 2.767 A 4.472 4.472 0 0 0 24.96 2.4 A 5.061 5.061 0 0 0 24.955 2.167 Q 24.94 1.839 24.88 1.6 A 2.462 2.462 0 0 0 24.901 1.499 Q 24.931 1.344 24.946 1.167 A 4.472 4.472 0 0 0 24.96 0.8 A 5.061 5.061 0 0 0 24.955 0.567 Q 24.94 0.239 24.88 0 L 23.28 0 A 2.187 2.187 0 0 0 23.244 0.175 Q 23.2 0.443 23.2 0.8 A 5.005 5.005 0 0 0 23.202 0.927 Q 23.206 1.114 23.225 1.28 A 2.787 2.787 0 0 0 23.28 1.6 A 2.187 2.187 0 0 0 23.244 1.775 Q 23.2 2.043 23.2 2.4 A 5.005 5.005 0 0 0 23.202 2.527 Q 23.206 2.714 23.225 2.88 A 2.787 2.787 0 0 0 23.28 3.2 A 2.187 2.187 0 0 0 23.244 3.375 Q 23.2 3.643 23.2 4 A 5.005 5.005 0 0 0 23.202 4.127 Q 23.206 4.314 23.225 4.48 A 2.787 2.787 0 0 0 23.28 4.8 A 2.187 2.187 0 0 0 23.244 4.975 Q 23.2 5.243 23.2 5.6 A 5.005 5.005 0 0 0 23.202 5.727 Q 23.206 5.914 23.225 6.08 A 2.787 2.787 0 0 0 23.28 6.4 A 2.187 2.187 0 0 0 23.244 6.575 Q 23.2 6.843 23.2 7.2 A 5.005 5.005 0 0 0 23.202 7.327 Q 23.206 7.514 23.225 7.68 A 2.787 2.787 0 0 0 23.28 8 A 2.187 2.187 0 0 0 23.244 8.175 Q 23.2 8.443 23.2 8.8 A 5.005 5.005 0 0 0 23.202 8.927 Q 23.206 9.114 23.225 9.28 A 2.787 2.787 0 0 0 23.28 9.6 A 2.187 2.187 0 0 0 23.244 9.775 Q 23.2 10.043 23.2 10.4 A 5.005 5.005 0 0 0 23.202 10.527 Q 23.206 10.714 23.225 10.88 A 2.787 2.787 0 0 0 23.28 11.2 L 24.88 11.2 A 2.462 2.462 0 0 0 24.901 11.099 Q 24.931 10.944 24.946 10.767 A 4.472 4.472 0 0 0 24.96 10.4 A 5.061 5.061 0 0 0 24.955 10.167 Q 24.94 9.839 24.88 9.6 A 2.462 2.462 0 0 0 24.901 9.499 Q 24.931 9.344 24.946 9.167 A 4.472 4.472 0 0 0 24.96 8.8 A 5.061 5.061 0 0 0 24.955 8.567 Q 24.94 8.239 24.88 8 A 2.462 2.462 0 0 0 24.901 7.899 Q 24.931 7.744 24.946 7.567 A 4.472 4.472 0 0 0 24.96 7.2 A 5.061 5.061 0 0 0 24.955 6.967 Q 24.94 6.639 24.88 6.4 L 25.48 6.4 A 2.462 2.462 0 0 0 25.501 6.299 Q 25.531 6.144 25.546 5.967 A 4.472 4.472 0 0 0 25.56 5.6 A 5.061 5.061 0 0 0 25.555 5.367 Q 25.54 5.039 25.48 4.8 Z M 11.28 9.6 A 2.787 2.787 0 0 1 11.225 9.28 Q 11.206 9.114 11.202 8.927 A 5.005 5.005 0 0 1 11.2 8.8 Q 11.2 8.443 11.244 8.175 A 2.187 2.187 0 0 1 11.28 8 L 8.88 8 Q 8.94 8.239 8.955 8.567 A 5.061 5.061 0 0 1 8.96 8.8 A 4.472 4.472 0 0 1 8.946 9.167 Q 8.931 9.344 8.901 9.499 A 2.462 2.462 0 0 1 8.88 9.6 L 11.28 9.6 L 12.08 9.6 A 2.187 2.187 0 0 0 12.044 9.775 Q 12 10.043 12 10.4 A 5.005 5.005 0 0 0 12.002 10.527 Q 12.006 10.714 12.025 10.88 A 2.787 2.787 0 0 0 12.08 11.2 L 13.68 11.2 A 2.462 2.462 0 0 0 13.701 11.099 Q 13.731 10.944 13.746 10.767 A 4.472 4.472 0 0 0 13.76 10.4 A 5.061 5.061 0 0 0 13.755 10.167 Q 13.74 9.839 13.68 9.6 L 12.88 9.6 A 2.462 2.462 0 0 0 12.901 9.499 Q 12.931 9.344 12.946 9.167 A 4.472 4.472 0 0 0 12.96 8.8 A 5.061 5.061 0 0 0 12.955 8.567 Q 12.94 8.239 12.88 8 A 2.462 2.462 0 0 0 12.901 7.899 Q 12.931 7.744 12.946 7.567 A 4.472 4.472 0 0 0 12.96 7.2 A 5.061 5.061 0 0 0 12.955 6.967 Q 12.94 6.639 12.88 6.4 A 2.462 2.462 0 0 0 12.901 6.299 Q 12.931 6.144 12.946 5.967 A 4.472 4.472 0 0 0 12.96 5.6 A 5.061 5.061 0 0 0 12.955 5.367 Q 12.94 5.039 12.88 4.8 L 12.08 4.8 A 2.462 2.462 0 0 0 12.101 4.699 Q 12.131 4.544 12.146 4.367 A 4.472 4.472 0 0 0 12.16 4 A 5.061 5.061 0 0 0 12.155 3.767 Q 12.14 3.439 12.08 3.2 L 8.48 3.2 A 2.187 2.187 0 0 0 8.444 3.375 Q 8.4 3.643 8.4 4 A 5.005 5.005 0 0 0 8.402 4.127 Q 8.406 4.314 8.425 4.48 A 2.787 2.787 0 0 0 8.48 4.8 L 11.28 4.8 A 2.187 2.187 0 0 0 11.244 4.975 Q 11.2 5.243 11.2 5.6 A 5.005 5.005 0 0 0 11.202 5.727 Q 11.206 5.914 11.225 6.08 A 2.787 2.787 0 0 0 11.28 6.4 L 8.08 6.4 A 2.187 2.187 0 0 0 8.044 6.575 Q 8 6.843 8 7.2 A 5.005 5.005 0 0 0 8.002 7.327 Q 8.006 7.514 8.025 7.68 A 2.787 2.787 0 0 0 8.08 8 L 7.28 8 A 2.187 2.187 0 0 0 7.244 8.175 Q 7.2 8.443 7.2 8.8 A 5.005 5.005 0 0 0 7.202 8.927 Q 7.206 9.114 7.225 9.28 A 2.787 2.787 0 0 0 7.28 9.6 L 8.08 9.6 A 2.187 2.187 0 0 0 8.044 9.775 Q 8 10.043 8 10.4 A 5.005 5.005 0 0 0 8.002 10.527 Q 8.006 10.714 8.025 10.88 A 2.787 2.787 0 0 0 8.08 11.2 L 11.28 11.2 A 2.462 2.462 0 0 0 11.301 11.099 Q 11.331 10.944 11.346 10.767 A 4.472 4.472 0 0 0 11.36 10.4 A 5.061 5.061 0 0 0 11.355 10.167 Q 11.34 9.839 11.28 9.6 Z M 21.28 9.6 L 20.48 9.6 Q 20.54 9.839 20.555 10.167 A 5.061 5.061 0 0 1 20.56 10.4 A 4.472 4.472 0 0 1 20.546 10.767 Q 20.531 10.944 20.501 11.099 A 2.462 2.462 0 0 1 20.48 11.2 L 16.08 11.2 A 2.787 2.787 0 0 1 16.025 10.88 Q 16.006 10.714 16.002 10.527 A 5.005 5.005 0 0 1 16 10.4 Q 16 10.043 16.044 9.775 A 2.187 2.187 0 0 1 16.08 9.6 L 19.68 9.6 A 2.787 2.787 0 0 1 19.625 9.28 Q 19.606 9.114 19.602 8.927 A 5.005 5.005 0 0 1 19.6 8.8 Q 19.6 8.443 19.644 8.175 A 2.187 2.187 0 0 1 19.68 8 L 16.48 8 A 2.787 2.787 0 0 1 16.425 7.68 Q 16.406 7.514 16.402 7.327 A 5.005 5.005 0 0 1 16.4 7.2 Q 16.4 6.843 16.444 6.575 A 2.187 2.187 0 0 1 16.48 6.4 L 15.68 6.4 A 2.787 2.787 0 0 1 15.625 6.08 Q 15.606 5.914 15.602 5.727 A 5.005 5.005 0 0 1 15.6 5.6 Q 15.6 5.243 15.644 4.975 A 2.187 2.187 0 0 1 15.68 4.8 L 16.48 4.8 A 2.787 2.787 0 0 1 16.425 4.48 Q 16.406 4.314 16.402 4.127 A 5.005 5.005 0 0 1 16.4 4 Q 16.4 3.643 16.444 3.375 A 2.187 2.187 0 0 1 16.48 3.2 L 20.88 3.2 Q 20.94 3.439 20.955 3.767 A 5.061 5.061 0 0 1 20.96 4 A 4.472 4.472 0 0 1 20.946 4.367 Q 20.931 4.544 20.901 4.699 A 2.462 2.462 0 0 1 20.88 4.8 L 17.28 4.8 A 2.348 2.348 0 0 1 17.329 5.062 Q 17.347 5.204 17.355 5.367 A 5.061 5.061 0 0 1 17.36 5.6 A 4.472 4.472 0 0 1 17.346 5.967 Q 17.331 6.144 17.301 6.299 A 2.462 2.462 0 0 1 17.28 6.4 L 20.48 6.4 Q 20.54 6.639 20.555 6.967 A 5.061 5.061 0 0 1 20.56 7.2 A 4.472 4.472 0 0 1 20.546 7.567 Q 20.531 7.744 20.501 7.899 A 2.462 2.462 0 0 1 20.48 8 L 21.28 8 A 2.348 2.348 0 0 1 21.329 8.263 Q 21.347 8.404 21.355 8.567 A 5.061 5.061 0 0 1 21.36 8.8 A 4.472 4.472 0 0 1 21.346 9.167 Q 21.331 9.344 21.301 9.499 A 2.462 2.462 0 0 1 21.28 9.6 Z M 61.68 4.8 L 61.08 4.8 Q 61.14 5.039 61.155 5.367 A 5.061 5.061 0 0 1 61.16 5.6 A 4.472 4.472 0 0 1 61.146 5.967 Q 61.131 6.144 61.101 6.299 A 2.462 2.462 0 0 1 61.08 6.4 L 60.48 6.4 Q 60.54 6.639 60.555 6.967 A 5.061 5.061 0 0 1 60.56 7.2 A 4.472 4.472 0 0 1 60.546 7.567 Q 60.531 7.744 60.501 7.899 A 2.462 2.462 0 0 1 60.48 8 L 60.08 8 Q 60.14 8.239 60.155 8.567 A 5.061 5.061 0 0 1 60.16 8.8 A 4.472 4.472 0 0 1 60.146 9.167 Q 60.131 9.344 60.101 9.499 A 2.462 2.462 0 0 1 60.08 9.6 L 59.28 9.6 Q 59.34 9.839 59.355 10.167 A 5.061 5.061 0 0 1 59.36 10.4 A 4.472 4.472 0 0 1 59.346 10.767 Q 59.331 10.944 59.301 11.099 A 2.462 2.462 0 0 1 59.28 11.2 L 57.68 11.2 A 2.787 2.787 0 0 1 57.625 10.88 Q 57.606 10.714 57.602 10.527 A 5.005 5.005 0 0 1 57.6 10.4 Q 57.6 10.043 57.644 9.775 A 2.187 2.187 0 0 1 57.68 9.6 L 56.88 9.6 A 2.787 2.787 0 0 1 56.825 9.28 Q 56.806 9.114 56.802 8.927 A 5.005 5.005 0 0 1 56.8 8.8 Q 56.8 8.443 56.844 8.175 A 2.187 2.187 0 0 1 56.88 8 L 56.48 8 A 2.787 2.787 0 0 1 56.425 7.68 Q 56.406 7.514 56.402 7.327 A 5.005 5.005 0 0 1 56.4 7.2 Q 56.4 6.843 56.444 6.575 A 2.187 2.187 0 0 1 56.48 6.4 L 55.88 6.4 A 2.787 2.787 0 0 1 55.825 6.08 Q 55.806 5.914 55.802 5.727 A 5.005 5.005 0 0 1 55.8 5.6 Q 55.8 5.243 55.844 4.975 A 2.187 2.187 0 0 1 55.88 4.8 L 55.28 4.8 A 2.787 2.787 0 0 1 55.225 4.48 Q 55.206 4.314 55.202 4.127 A 5.005 5.005 0 0 1 55.2 4 Q 55.2 3.643 55.244 3.375 A 2.187 2.187 0 0 1 55.28 3.2 L 56.88 3.2 Q 56.94 3.439 56.955 3.767 A 5.061 5.061 0 0 1 56.96 4 A 4.472 4.472 0 0 1 56.946 4.367 Q 56.931 4.544 56.901 4.699 A 2.462 2.462 0 0 1 56.88 4.8 L 57.48 4.8 Q 57.54 5.039 57.555 5.367 A 5.061 5.061 0 0 1 57.56 5.6 A 4.472 4.472 0 0 1 57.546 5.967 Q 57.531 6.144 57.501 6.299 A 2.462 2.462 0 0 1 57.48 6.4 L 58.08 6.4 Q 58.14 6.639 58.155 6.967 A 5.061 5.061 0 0 1 58.16 7.2 A 4.472 4.472 0 0 1 58.146 7.567 Q 58.131 7.744 58.101 7.899 A 2.462 2.462 0 0 1 58.08 8 L 58.88 8 A 2.787 2.787 0 0 1 58.825 7.68 Q 58.806 7.514 58.802 7.327 A 5.005 5.005 0 0 1 58.8 7.2 Q 58.8 6.843 58.844 6.575 A 2.187 2.187 0 0 1 58.88 6.4 L 59.48 6.4 A 2.787 2.787 0 0 1 59.425 6.08 Q 59.406 5.914 59.402 5.727 A 5.005 5.005 0 0 1 59.4 5.6 Q 59.4 5.243 59.444 4.975 A 2.187 2.187 0 0 1 59.48 4.8 L 60.08 4.8 A 2.787 2.787 0 0 1 60.025 4.48 Q 60.006 4.314 60.002 4.127 A 5.005 5.005 0 0 1 60 4 Q 60 3.643 60.044 3.375 A 2.187 2.187 0 0 1 60.08 3.2 L 61.68 3.2 Q 61.74 3.439 61.755 3.767 A 5.061 5.061 0 0 1 61.76 4 A 4.472 4.472 0 0 1 61.746 4.367 Q 61.731 4.544 61.701 4.699 A 2.462 2.462 0 0 1 61.68 4.8 Z M 53.68 8 L 49.48 8 Q 49.54 8.239 49.555 8.567 A 5.061 5.061 0 0 1 49.56 8.8 A 4.472 4.472 0 0 1 49.546 9.167 Q 49.531 9.344 49.501 9.499 A 2.462 2.462 0 0 1 49.48 9.6 L 52.88 9.6 Q 52.94 9.839 52.955 10.167 A 5.061 5.061 0 0 1 52.96 10.4 A 4.472 4.472 0 0 1 52.946 10.767 Q 52.931 10.944 52.901 11.099 A 2.462 2.462 0 0 1 52.88 11.2 L 48.88 11.2 A 2.787 2.787 0 0 1 48.825 10.88 Q 48.806 10.714 48.802 10.527 A 5.005 5.005 0 0 1 48.8 10.4 Q 48.8 10.043 48.844 9.775 A 2.187 2.187 0 0 1 48.88 9.6 L 47.88 9.6 A 2.787 2.787 0 0 1 47.825 9.28 Q 47.806 9.114 47.802 8.927 A 5.005 5.005 0 0 1 47.8 8.8 Q 47.8 8.443 47.844 8.175 A 2.187 2.187 0 0 1 47.88 8 L 47.28 8 A 2.787 2.787 0 0 1 47.225 7.68 Q 47.206 7.514 47.202 7.327 A 5.005 5.005 0 0 1 47.2 7.2 Q 47.2 6.843 47.244 6.575 A 2.187 2.187 0 0 1 47.28 6.4 L 47.88 6.4 A 2.787 2.787 0 0 1 47.825 6.08 Q 47.806 5.914 47.802 5.727 A 5.005 5.005 0 0 1 47.8 5.6 Q 47.8 5.243 47.844 4.975 A 2.187 2.187 0 0 1 47.88 4.8 L 48.88 4.8 A 2.787 2.787 0 0 1 48.825 4.48 Q 48.806 4.314 48.802 4.127 A 5.005 5.005 0 0 1 48.8 4 Q 48.8 3.643 48.844 3.375 A 2.187 2.187 0 0 1 48.88 3.2 L 52.88 3.2 Q 52.94 3.439 52.955 3.767 A 5.061 5.061 0 0 1 52.96 4 A 4.472 4.472 0 0 1 52.946 4.367 Q 52.931 4.544 52.901 4.699 A 2.462 2.462 0 0 1 52.88 4.8 L 53.68 4.8 Q 53.74 5.039 53.755 5.367 A 5.061 5.061 0 0 1 53.76 5.6 A 4.472 4.472 0 0 1 53.746 5.967 Q 53.731 6.144 53.701 6.299 A 2.462 2.462 0 0 1 53.68 6.4 Q 53.74 6.639 53.755 6.967 A 5.061 5.061 0 0 1 53.76 7.2 A 4.472 4.472 0 0 1 53.746 7.567 Q 53.731 7.744 53.701 7.899 A 2.462 2.462 0 0 1 53.68 8 Z M 43.08 4.8 L 41.08 4.8 Q 41.14 5.039 41.155 5.367 A 5.061 5.061 0 0 1 41.16 5.6 A 4.472 4.472 0 0 1 41.146 5.967 Q 41.131 6.144 41.101 6.299 A 2.462 2.462 0 0 1 41.08 6.4 L 40.48 6.4 Q 40.54 6.639 40.555 6.967 A 5.061 5.061 0 0 1 40.56 7.2 A 4.472 4.472 0 0 1 40.546 7.567 Q 40.531 7.744 40.501 7.899 A 2.462 2.462 0 0 1 40.48 8 L 41.08 8 Q 41.14 8.239 41.155 8.567 A 5.061 5.061 0 0 1 41.16 8.8 A 4.472 4.472 0 0 1 41.146 9.167 Q 41.131 9.344 41.101 9.499 A 2.462 2.462 0 0 1 41.08 9.6 L 43.08 9.6 Q 43.14 9.839 43.155 10.167 A 5.061 5.061 0 0 1 43.16 10.4 A 4.472 4.472 0 0 1 43.146 10.767 Q 43.131 10.944 43.101 11.099 A 2.462 2.462 0 0 1 43.08 11.2 L 40.88 11.2 A 2.787 2.787 0 0 1 40.825 10.88 Q 40.806 10.714 40.802 10.527 A 5.005 5.005 0 0 1 40.8 10.4 Q 40.8 10.043 40.844 9.775 A 2.187 2.187 0 0 1 40.88 9.6 L 39.88 9.6 A 2.787 2.787 0 0 1 39.825 9.28 Q 39.806 9.114 39.802 8.927 A 5.005 5.005 0 0 1 39.8 8.8 Q 39.8 8.443 39.844 8.175 A 2.187 2.187 0 0 1 39.88 8 L 39.28 8 A 2.787 2.787 0 0 1 39.225 7.68 Q 39.206 7.514 39.202 7.327 A 5.005 5.005 0 0 1 39.2 7.2 Q 39.2 6.843 39.244 6.575 A 2.187 2.187 0 0 1 39.28 6.4 L 39.88 6.4 A 2.787 2.787 0 0 1 39.825 6.08 Q 39.806 5.914 39.802 5.727 A 5.005 5.005 0 0 1 39.8 5.6 Q 39.8 5.243 39.844 4.975 A 2.187 2.187 0 0 1 39.88 4.8 L 40.88 4.8 A 2.787 2.787 0 0 1 40.825 4.48 Q 40.806 4.314 40.802 4.127 A 5.005 5.005 0 0 1 40.8 4 Q 40.8 3.643 40.844 3.375 A 2.187 2.187 0 0 1 40.88 3.2 L 43.08 3.2 Q 43.14 3.439 43.155 3.767 A 5.061 5.061 0 0 1 43.16 4 A 4.472 4.472 0 0 1 43.146 4.367 Q 43.131 4.544 43.101 4.699 A 2.462 2.462 0 0 1 43.08 4.8 Z M 45.68 11.2 L 44.08 11.2 A 2.787 2.787 0 0 1 44.025 10.88 Q 44.006 10.714 44.002 10.527 A 5.005 5.005 0 0 1 44 10.4 Q 44 10.043 44.044 9.775 A 2.187 2.187 0 0 1 44.08 9.6 L 43.48 9.6 A 2.787 2.787 0 0 1 43.425 9.28 Q 43.406 9.114 43.402 8.927 A 5.005 5.005 0 0 1 43.4 8.8 Q 43.4 8.443 43.444 8.175 A 2.187 2.187 0 0 1 43.48 8 L 44.08 8 A 2.787 2.787 0 0 1 44.025 7.68 Q 44.006 7.514 44.002 7.327 A 5.005 5.005 0 0 1 44 7.2 Q 44 6.843 44.044 6.575 A 2.187 2.187 0 0 1 44.08 6.4 L 43.48 6.4 A 2.787 2.787 0 0 1 43.425 6.08 Q 43.406 5.914 43.402 5.727 A 5.005 5.005 0 0 1 43.4 5.6 Q 43.4 5.243 43.444 4.975 A 2.187 2.187 0 0 1 43.48 4.8 L 44.08 4.8 A 2.787 2.787 0 0 1 44.025 4.48 Q 44.006 4.314 44.002 4.127 A 5.005 5.005 0 0 1 44 4 Q 44 3.643 44.044 3.375 A 2.187 2.187 0 0 1 44.08 3.2 A 2.787 2.787 0 0 1 44.025 2.88 Q 44.006 2.714 44.002 2.527 A 5.005 5.005 0 0 1 44 2.4 Q 44 2.043 44.044 1.775 A 2.187 2.187 0 0 1 44.08 1.6 A 2.787 2.787 0 0 1 44.025 1.28 Q 44.006 1.114 44.002 0.927 A 5.005 5.005 0 0 1 44 0.8 Q 44 0.443 44.044 0.175 A 2.187 2.187 0 0 1 44.08 0 L 45.68 0 Q 45.74 0.239 45.755 0.567 A 5.061 5.061 0 0 1 45.76 0.8 A 4.472 4.472 0 0 1 45.746 1.167 Q 45.731 1.344 45.701 1.499 A 2.462 2.462 0 0 1 45.68 1.6 Q 45.74 1.839 45.755 2.167 A 5.061 5.061 0 0 1 45.76 2.4 A 4.472 4.472 0 0 1 45.746 2.767 Q 45.731 2.944 45.701 3.099 A 2.462 2.462 0 0 1 45.68 3.2 Q 45.74 3.439 45.755 3.767 A 5.061 5.061 0 0 1 45.76 4 A 4.472 4.472 0 0 1 45.746 4.367 Q 45.731 4.544 45.701 4.699 A 2.462 2.462 0 0 1 45.68 4.8 Q 45.74 5.039 45.755 5.367 A 5.061 5.061 0 0 1 45.76 5.6 A 4.472 4.472 0 0 1 45.746 5.967 Q 45.731 6.144 45.701 6.299 A 2.462 2.462 0 0 1 45.68 6.4 Q 45.74 6.639 45.755 6.967 A 5.061 5.061 0 0 1 45.76 7.2 A 4.472 4.472 0 0 1 45.746 7.567 Q 45.731 7.744 45.701 7.899 A 2.462 2.462 0 0 1 45.68 8 Q 45.74 8.239 45.755 8.567 A 5.061 5.061 0 0 1 45.76 8.8 A 4.472 4.472 0 0 1 45.746 9.167 Q 45.731 9.344 45.701 9.499 A 2.462 2.462 0 0 1 45.68 9.6 Q 45.74 9.839 45.755 10.167 A 5.061 5.061 0 0 1 45.76 10.4 A 4.472 4.472 0 0 1 45.746 10.767 Q 45.731 10.944 45.701 11.099 A 2.462 2.462 0 0 1 45.68 11.2 Z M 4.88 11.2 L 0.08 11.2 A 2.787 2.787 0 0 1 0.025 10.88 Q 0.006 10.714 0.002 10.527 A 5.005 5.005 0 0 1 0 10.4 Q 0 10.043 0.044 9.775 A 2.187 2.187 0 0 1 0.08 9.6 L 1.68 9.6 A 2.787 2.787 0 0 1 1.625 9.28 Q 1.606 9.114 1.602 8.927 A 5.005 5.005 0 0 1 1.6 8.8 Q 1.6 8.443 1.644 8.175 A 2.187 2.187 0 0 1 1.68 8 A 2.787 2.787 0 0 1 1.625 7.68 Q 1.606 7.514 1.602 7.327 A 5.005 5.005 0 0 1 1.6 7.2 Q 1.6 6.843 1.644 6.575 A 2.187 2.187 0 0 1 1.68 6.4 A 2.787 2.787 0 0 1 1.625 6.08 Q 1.606 5.914 1.602 5.727 A 5.005 5.005 0 0 1 1.6 5.6 Q 1.6 5.243 1.644 4.975 A 2.187 2.187 0 0 1 1.68 4.8 L 0.48 4.8 A 2.787 2.787 0 0 1 0.425 4.48 Q 0.406 4.314 0.402 4.127 A 5.005 5.005 0 0 1 0.4 4 Q 0.4 3.643 0.444 3.375 A 2.187 2.187 0 0 1 0.48 3.2 L 3.28 3.2 Q 3.34 3.439 3.355 3.767 A 5.061 5.061 0 0 1 3.36 4 A 4.472 4.472 0 0 1 3.346 4.367 Q 3.331 4.544 3.301 4.699 A 2.462 2.462 0 0 1 3.28 4.8 Q 3.34 5.039 3.355 5.367 A 5.061 5.061 0 0 1 3.36 5.6 A 4.472 4.472 0 0 1 3.346 5.967 Q 3.331 6.144 3.301 6.299 A 2.462 2.462 0 0 1 3.28 6.4 Q 3.34 6.639 3.355 6.967 A 5.061 5.061 0 0 1 3.36 7.2 A 4.472 4.472 0 0 1 3.346 7.567 Q 3.331 7.744 3.301 7.899 A 2.462 2.462 0 0 1 3.28 8 Q 3.34 8.239 3.355 8.567 A 5.061 5.061 0 0 1 3.36 8.8 A 4.472 4.472 0 0 1 3.346 9.167 Q 3.331 9.344 3.301 9.499 A 2.462 2.462 0 0 1 3.28 9.6 L 4.88 9.6 Q 4.94 9.839 4.955 10.167 A 5.061 5.061 0 0 1 4.96 10.4 A 4.472 4.472 0 0 1 4.946 10.767 Q 4.931 10.944 4.901 11.099 A 2.462 2.462 0 0 1 4.88 11.2 Z M 35.48 11.2 L 33.48 11.2 A 2.787 2.787 0 0 1 33.425 10.88 Q 33.406 10.714 33.402 10.527 A 5.005 5.005 0 0 1 33.4 10.4 Q 33.4 10.043 33.444 9.775 A 2.187 2.187 0 0 1 33.48 9.6 A 2.787 2.787 0 0 1 33.425 9.28 Q 33.406 9.114 33.402 8.927 A 5.005 5.005 0 0 1 33.4 8.8 Q 33.4 8.443 33.444 8.175 A 2.187 2.187 0 0 1 33.48 8 L 35.48 8 Q 35.54 8.239 35.555 8.567 A 5.061 5.061 0 0 1 35.56 8.8 A 4.472 4.472 0 0 1 35.546 9.167 Q 35.531 9.344 35.501 9.499 A 2.462 2.462 0 0 1 35.48 9.6 Q 35.54 9.839 35.555 10.167 A 5.061 5.061 0 0 1 35.56 10.4 A 4.472 4.472 0 0 1 35.546 10.767 Q 35.531 10.944 35.501 11.099 A 2.462 2.462 0 0 1 35.48 11.2 Z M 52.08 4.8 L 49.48 4.8 Q 49.54 5.039 49.555 5.367 A 5.061 5.061 0 0 1 49.56 5.6 A 4.472 4.472 0 0 1 49.546 5.967 Q 49.531 6.144 49.501 6.299 A 2.462 2.462 0 0 1 49.48 6.4 L 52.08 6.4 A 2.787 2.787 0 0 1 52.025 6.08 Q 52.006 5.914 52.002 5.727 A 5.005 5.005 0 0 1 52 5.6 Q 52 5.243 52.044 4.975 A 2.187 2.187 0 0 1 52.08 4.8 Z M 3.28 1.6 L 1.68 1.6 A 2.787 2.787 0 0 1 1.625 1.28 Q 1.606 1.114 1.602 0.927 A 5.005 5.005 0 0 1 1.6 0.8 Q 1.6 0.443 1.644 0.175 A 2.187 2.187 0 0 1 1.68 0 L 3.28 0 Q 3.34 0.239 3.355 0.567 A 5.061 5.061 0 0 1 3.36 0.8 A 4.472 4.472 0 0 1 3.346 1.167 Q 3.331 1.344 3.301 1.499 A 2.462 2.462 0 0 1 3.28 1.6 Z" vector-effect="non-scaling-stroke"/></g></svg>