<svg xmlns="http://www.w3.org/2000/svg" width="512" height="512" viewBox="0 0 512 512" version="1.1">
	<path d="M 232 1.086 C 182.855 5.787, 133.900 25.743, 95.388 56.772 C 35.527 105.003, -0.013 179.235, 0.004 256 C 0.007 269.008, 1.441 286.187, 3.437 297.123 L 4.784 304.500 4.892 294.890 C 4.951 289.604, 5.286 283.191, 5.636 280.640 L 6.272 276 44.386 276 L 82.500 276 82.500 256.500 L 82.500 237.001 49.311 237 L 16.123 237 15.311 232.250 C 14.315 226.415, 14.338 207.856, 15.349 202.750 L 16.091 199 59.457 199 L 102.824 199 103.567 203.250 C 104.510 208.647, 104.498 227.170, 103.548 232.750 L 102.824 237 112.351 237 L 121.877 237 122.650 241.750 C 123.074 244.363, 123.392 250.325, 123.355 255 C 123.294 262.787, 123.262 273.172, 123.228 295.250 C 123.214 305.111, 123.277 322.274, 123.372 334 C 123.410 338.675, 123.125 344.637, 122.739 347.250 L 122.038 352 131.474 352 L 140.909 352 141.705 355.750 C 142.142 357.813, 142.500 364.900, 142.500 371.500 C 142.500 378.100, 142.142 385.188, 141.705 387.250 L 140.909 391 121.923 391 C 104.782 391, 102.867 390.830, 102.219 389.250 C 101.823 388.287, 101.500 379.512, 101.500 369.750 L 101.500 352 93 352 L 84.500 351.999 84.500 369.750 C 84.500 379.512, 84.177 388.288, 83.781 389.250 C 83.128 390.842, 81.073 391, 61.031 391 C 48.914 391, 39 391.245, 39 391.545 C 39 392.762, 49.593 407.671, 57.009 416.890 C 104.876 476.398, 179.360 511.998, 256 511.998 C 313.722 511.998, 371.499 491.576, 416.612 455.228 C 442.202 434.610, 466.267 405.793, 480.380 378.869 C 484.186 371.609, 484.860 369.374, 485.468 362 C 485.854 357.325, 486.021 351.700, 485.841 349.500 C 485.661 347.300, 485.548 339.762, 485.591 332.750 C 485.634 325.738, 485.668 317.300, 485.668 314 C 485.664 292.017, 485.639 279.718, 485.588 274.500 C 485.556 271.200, 485.553 261.413, 485.581 252.750 L 485.633 237 454.878 237 L 424.123 237 423.311 232.250 C 422.315 226.415, 422.338 207.856, 423.349 202.750 L 424.091 199 462.526 199 L 500.962 199 501.728 201.750 C 502.701 205.243, 502.737 229.439, 501.775 233.750 L 501.050 237 506.169 237 L 511.287 237 510.622 229.750 C 506.360 183.293, 485.723 133.237, 455.228 95.388 C 411.875 41.581, 348.102 7.531, 278.500 1.029 C 265.979 -0.140, 244.545 -0.114, 232 1.086 M 370.592 127.250 C 369.719 135.564, 370.409 388.360, 371.309 389.750 C 371.909 390.677, 376.992 391, 390.998 391 L 409.877 391 410.624 386.250 C 411.034 383.637, 411.350 377.450, 411.325 372.500 C 411.281 363.906, 411.255 349.200, 411.255 333 C 411.255 328.875, 411.246 320.550, 411.236 314.500 C 411.225 308.450, 411.280 299.900, 411.358 295.500 C 411.436 291.100, 411.171 284.707, 410.770 281.293 L 410.040 275.087 417.256 274.793 L 424.472 274.500 425.178 270.500 C 426.091 265.332, 426.091 246.668, 425.178 241.500 L 424.472 237.500 417.261 237.207 L 410.050 236.913 410.745 232.207 C 411.128 229.618, 411.406 223.675, 411.365 219 C 411.295 211.244, 411.263 201.606, 411.228 178.750 C 411.222 174.213, 411.242 165.550, 411.275 159.500 C 411.406 134.785, 411.300 129.331, 410.621 125.750 L 409.909 122 390.527 122 L 371.144 122 370.592 127.250 M 207.379 202.750 C 206.405 207.886, 206.335 224.253, 207.259 231.250 L 208.017 237 198.554 237 L 189.091 237 188.295 240.750 C 187.295 245.466, 187.292 268.570, 188.291 272.250 L 189.038 275 198.504 275 L 207.969 275 207.235 281.250 C 206.297 289.227, 206.354 303.124, 207.350 309.250 L 208.123 314 246.573 314 L 285.024 314 284.262 318.250 C 283.303 323.598, 283.286 344.421, 284.236 348.750 L 284.950 352 241.944 352 C 201.926 352, 198.887 352.122, 198.219 353.750 C 197.282 356.030, 197.282 386.970, 198.219 389.250 C 198.890 390.885, 202.378 391, 251.450 391 L 303.962 391 304.731 388.250 C 305.583 385.204, 305.788 360.228, 305 355.500 L 304.500 352.500 314.125 352.215 L 323.750 351.931 324.364 348.215 C 325.171 343.332, 325.171 324.529, 324.364 318.640 L 323.728 314 314.001 314 L 304.273 314 305.237 308.750 C 306.310 302.910, 305.875 279.206, 304.659 277.250 C 304.060 276.286, 295.263 276, 266.191 276 L 228.500 276 228.500 256.500 L 228.500 237 271.189 237 L 313.877 237 314.689 232.250 C 315.685 226.415, 315.662 207.856, 314.651 202.750 L 313.909 199 261 199 L 208.091 199 207.379 202.750 M 26.723 318.250 C 27.687 323.737, 27.687 342.263, 26.723 347.750 L 25.976 352 54.238 352 L 82.500 352 82.500 333 L 82.500 314 54.238 314 L 25.976 314 26.723 318.250" stroke="none" fill="black" fill-rule="evenodd"/>
</svg>